HIERARCHY
ROOT Hips
{
    OFFSET   0.000000   0.000000   0.000000
    CHANNELS 6 Xposition Yposition Zposition Zrotation Xrotation Yrotation
    JOINT Chest
    {
        OFFSET   0.000000   8.007240   0.000000
        CHANNELS 3 Zrotation Xrotation Yrotation
        JOINT Chest2
        {
            OFFSET   0.000000  22.077100   0.000000
            CHANNELS 3 Zrotation Xrotation Yrotation
            JOINT Neck
            {
                OFFSET   0.000000  23.254800   0.000000
                CHANNELS 3 Zrotation Xrotation Yrotation
                JOINT Head
                {
                    OFFSET   0.000000  14.370000   1.956600
                    CHANNELS 3 Zrotation Xrotation Yrotation
                    End Site
                    {
                        OFFSET   0.000000  19.566000   0.000000
                    }
                }
            }
            JOINT LeftCollar
            {
                OFFSET   3.911900  19.017000  -0.467064
                CHANNELS 3 Zrotation Xrotation Yrotation
                JOINT LeftShoulder
                {
                    OFFSET  10.383700   0.000000   0.000000
                    CHANNELS 3 Zrotation Xrotation Yrotation
                    JOINT LeftElbow
                    {
                        OFFSET  26.662100   0.001476   0.000517
                        CHANNELS 3 Zrotation Xrotation Yrotation
                        JOINT LeftWrist
                        {
                            OFFSET  28.869000  -0.000025  -0.000106
                            CHANNELS 3 Zrotation Xrotation Yrotation
                            JOINT LeftFinger0
                            {
                                OFFSET   2.044660  -2.323460   3.252850
                                CHANNELS 3 Zrotation Xrotation Yrotation
                                JOINT LeftFinger01
                                {
                                    OFFSET   3.088130   0.000000   0.000000
                                    CHANNELS 3 Zrotation Xrotation Yrotation
                                    JOINT LeftFinger02
                                    {
                                        OFFSET   2.639460   0.000000   0.000000
                                        CHANNELS 3 Zrotation Xrotation Yrotation
                                        End Site
                                        {
                                            OFFSET   2.582190   0.000000   0.000000
                                        }
                                    }
                                }
                            }
                            JOINT LeftFinger1
                            {
                                OFFSET   8.364480   0.000000   3.252850
                                CHANNELS 3 Zrotation Xrotation Yrotation
                                JOINT LeftFinger11
                                {
                                    OFFSET   4.646930   0.000000   0.000000
                                    CHANNELS 3 Zrotation Xrotation Yrotation
                                    JOINT LeftFinger12
                                    {
                                        OFFSET   2.323460   0.000000   0.000000
                                        CHANNELS 3 Zrotation Xrotation Yrotation
                                        End Site
                                        {
                                            OFFSET   2.273050   0.000000   0.000000
                                        }
                                    }
                                }
                            }
                            JOINT LeftFinger2
                            {
                                OFFSET   8.364490   0.000015   1.078090
                                CHANNELS 3 Zrotation Xrotation Yrotation
                                JOINT LeftFinger21
                                {
                                    OFFSET   5.111620   0.000000   0.000000
                                    CHANNELS 3 Zrotation Xrotation Yrotation
                                    JOINT LeftFinger22
                                    {
                                        OFFSET   2.788160   0.000016   0.000000
                                        CHANNELS 3 Zrotation Xrotation Yrotation
                                        End Site
                                        {
                                            OFFSET   2.727660   0.000000   0.000000
                                        }
                                    }
                                }
                            }
                            JOINT LeftFinger3
                            {
                                OFFSET   7.899780   0.000017  -1.078090
                                CHANNELS 3 Zrotation Xrotation Yrotation
                                JOINT LeftFinger31
                                {
                                    OFFSET   4.646930   0.000000   0.000000
                                    CHANNELS 3 Zrotation Xrotation Yrotation
                                    JOINT LeftFinger32
                                    {
                                        OFFSET   2.323470   0.000000   0.000000
                                        CHANNELS 3 Zrotation Xrotation Yrotation
                                        End Site
                                        {
                                            OFFSET   2.273050   0.000000   0.000000
                                        }
                                    }
                                }
                            }
                            JOINT LeftFinger4
                            {
                                OFFSET   7.435090   0.000000  -3.252850
                                CHANNELS 3 Zrotation Xrotation Yrotation
                                JOINT LeftFinger41
                                {
                                    OFFSET   3.717550   0.000000   0.000000
                                    CHANNELS 3 Zrotation Xrotation Yrotation
                                    JOINT LeftFinger42
                                    {
                                        OFFSET   1.858770   0.000000   0.000000
                                        CHANNELS 3 Zrotation Xrotation Yrotation
                                        End Site
                                        {
                                            OFFSET   1.818440   0.000000   0.000000
                                        }
                                    }
                                }
                            }
                        }
                    }
                }
            }
            JOINT RightCollar
            {
                OFFSET  -3.911900  19.017000  -0.467063
                CHANNELS 3 Zrotation Xrotation Yrotation
                JOINT RightShoulder
                {
                    OFFSET -10.383700   0.000019   0.000000
                    CHANNELS 3 Zrotation Xrotation Yrotation
                    JOINT RightElbow
                    {
                        OFFSET -26.662100   0.001175   0.000102
                        CHANNELS 3 Zrotation Xrotation Yrotation
                        JOINT RightWrist
                        {
                            OFFSET -28.869000   0.000016  -0.000079
                            CHANNELS 3 Zrotation Xrotation Yrotation
                            JOINT RightFinger0
                            {
                                OFFSET  -2.044660  -2.323490   3.252850
                                CHANNELS 3 Zrotation Xrotation Yrotation
                                JOINT RightFinger01
                                {
                                    OFFSET  -3.088140   0.000000   0.000000
                                    CHANNELS 3 Zrotation Xrotation Yrotation
                                    JOINT RightFinger02
                                    {
                                        OFFSET  -2.639460   0.000000   0.000000
                                        CHANNELS 3 Zrotation Xrotation Yrotation
                                        End Site
                                        {
                                            OFFSET  -2.582190   0.000000   0.000000
                                        }
                                    }
                                }
                            }
                            JOINT RightFinger1
                            {
                                OFFSET  -8.364480   0.000000   3.252850
                                CHANNELS 3 Zrotation Xrotation Yrotation
                                JOINT RightFinger11
                                {
                                    OFFSET  -4.646930   0.000000   0.000000
                                    CHANNELS 3 Zrotation Xrotation Yrotation
                                    JOINT RightFinger12
                                    {
                                        OFFSET  -2.323470   0.000000   0.000000
                                        CHANNELS 3 Zrotation Xrotation Yrotation
                                        End Site
                                        {
                                            OFFSET  -2.273050   0.000000   0.000000
                                        }
                                    }
                                }
                            }
                            JOINT RightFinger2
                            {
                                OFFSET  -8.364480   0.000000   1.078090
                                CHANNELS 3 Zrotation Xrotation Yrotation
                                JOINT RightFinger21
                                {
                                    OFFSET  -5.111620   0.000000   0.000000
                                    CHANNELS 3 Zrotation Xrotation Yrotation
                                    JOINT RightFinger22
                                    {
                                        OFFSET  -2.788160   0.000000   0.000000
                                        CHANNELS 3 Zrotation Xrotation Yrotation
                                        End Site
                                        {
                                            OFFSET  -2.727660   0.000000   0.000000
                                        }
                                    }
                                }
                            }
                            JOINT RightFinger3
                            {
                                OFFSET  -7.899780   0.000000  -1.078090
                                CHANNELS 3 Zrotation Xrotation Yrotation
                                JOINT RightFinger31
                                {
                                    OFFSET  -4.646930   0.000000   0.000000
                                    CHANNELS 3 Zrotation Xrotation Yrotation
                                    JOINT RightFinger32
                                    {
                                        OFFSET  -2.323470   0.000000   0.000000
                                        CHANNELS 3 Zrotation Xrotation Yrotation
                                        End Site
                                        {
                                            OFFSET  -2.273050   0.000000   0.000000
                                        }
                                    }
                                }
                            }
                            JOINT RightFinger4
                            {
                                OFFSET  -7.435090   0.000000  -3.252850
                                CHANNELS 3 Zrotation Xrotation Yrotation
                                JOINT RightFinger41
                                {
                                    OFFSET  -3.717550   0.000000   0.000000
                                    CHANNELS 3 Zrotation Xrotation Yrotation
                                    JOINT RightFinger42
                                    {
                                        OFFSET  -1.858770   0.000000   0.000000
                                        CHANNELS 3 Zrotation Xrotation Yrotation
                                        End Site
                                        {
                                            OFFSET  -1.818440   0.000000   0.000000
                                        }
                                    }
                                }
                            }
                        }
                    }
                }
            }
        }
    }
    JOINT LeftHip
    {
        OFFSET   9.783040   0.000000   0.000000
        CHANNELS 3 Zrotation Xrotation Yrotation
        JOINT LeftKnee
        {
            OFFSET   0.000032 -41.789100  -0.002222
            CHANNELS 3 Zrotation Xrotation Yrotation
            JOINT LeftAnkle
            {
                OFFSET   0.000087 -41.133200  -0.000135
                CHANNELS 3 Zrotation Xrotation Yrotation
                JOINT LeftToe
                {
                    OFFSET   0.000000  -6.358960  14.674500
                    CHANNELS 3 Zrotation Xrotation Yrotation
                    End Site
                    {
                        OFFSET   0.000000   0.000000   3.913200
                    }
                }
            }
        }
    }
    JOINT RightHip
    {
        OFFSET  -9.783040   0.000000   0.000000
        CHANNELS 3 Zrotation Xrotation Yrotation
        JOINT RightKnee
        {
            OFFSET   0.000047 -41.789100  -0.000896
            CHANNELS 3 Zrotation Xrotation Yrotation
            JOINT RightAnkle
            {
                OFFSET  -0.000117 -41.133300  -0.000248
                CHANNELS 3 Zrotation Xrotation Yrotation
                JOINT RightToe
                {
                    OFFSET   0.000000  -6.358970  14.674500
                    CHANNELS 3 Zrotation Xrotation Yrotation
                    End Site
                    {
                        OFFSET   0.000000   0.000000   3.913200
                    }
                }
            }
        }
    }
}
MOTION
Frames: 5
Frame Time:   0.016667
  0.092698  89.550100  -0.652006  -1.949650  -1.932600   1.394660   1.199170   1.902760  -0.713219   2.423960   3.790020  -1.467360   0.997623   0.632070  -0.001819   1.639450   1.280660   1.899750  -3.364390   2.537780   0.650015 -73.425900  14.786300  -3.661390  -2.077270  -4.146600  -9.601540   8.410820  -8.360150   9.675970  41.770000  27.785200 -65.740900 -17.659100  -0.000908   0.004429  -3.831140  -0.002173   0.005209 -34.734200   6.428850  -9.191670 -28.842100  -0.005264   0.011892 -20.189500  -0.004468  -0.013524 -28.615600   2.667270  -4.900490 -39.808100  -0.003599  -0.008007 -26.506300  -0.002406  -0.004894 -28.759900   1.027180  -1.874050 -41.605100  -0.006456   0.008210 -27.709000  -0.005904   0.000685 -39.207200  -0.854136   1.034340 -58.831000  -0.007591   0.001754 -39.175800  -0.004405  -0.003950   2.035810  -1.216970   6.780940  75.171900   5.587530  -0.345724   0.720628  -3.010910   6.224610 -12.716000  -8.844870   3.676850 -40.651600  33.401500  70.059300  26.942700   0.014890  -0.012111   8.479790   0.001787  -0.001474  30.839700   6.185850  10.208900  25.686000   0.001467   0.001797  17.980200   0.001132   0.000215  27.492600   5.129440   9.745310  31.562600   0.000489  -0.007317  21.020700  -0.001352  -0.005901  27.740400   3.416800   6.432740  31.585200   0.006883  -0.005672  21.035700   0.005389  -0.003727  31.115100   1.051940   1.728370  46.696400   0.003096  -0.002570  31.099800  -0.005389  -0.002813   2.486940   5.395320   0.262452   0.619451   0.188728  -0.484555  -2.073350  -2.969180  -1.025670  -0.000000   0.000000   0.000000   0.439088  -0.825110  -1.840520   1.102530   5.535840   0.107510  -3.460560  -2.511200   0.037497   0.000000   0.000000   0.000000
  0.086953  89.550000  -0.638487  -1.949610  -1.932600   1.394760   1.201910   1.905320  -0.713776   2.429500   3.795090  -1.468620   1.006960   0.621707  -0.001822   1.654790   1.259510   1.914300  -3.375300   2.533940   0.648979 -73.423200  14.786400  -3.672420  -2.076030  -4.141130  -9.601380   8.411180  -8.360140   9.676170  41.776200  27.791200 -65.747100 -17.659500  -0.000908   0.004422  -3.831140  -0.002171   0.005222 -34.734500   6.428680  -9.189540 -28.842100  -0.005264   0.011892 -20.189500  -0.004468  -0.013524 -28.615700   2.667230  -4.899280 -39.803700  -0.003597  -0.008009 -26.506300  -0.002405  -0.004894 -28.759900   1.027180  -1.873470 -41.605100  -0.006456   0.008209 -27.709000  -0.005902   0.000685 -39.207200  -0.854295   1.034360 -58.826800  -0.007590   0.001755 -39.175800  -0.004404  -0.003948   2.029520  -1.223150   6.801440  75.163000   5.608960  -0.315349   0.723632  -3.020650   6.201160 -12.719100  -8.838760   3.671720 -40.641400  33.403000  70.073100  26.948700   0.014890  -0.012129   8.479390   0.001779  -0.001477  30.852700   6.186060  10.208300  25.696400   0.001466   0.001799  17.987500   0.001137   0.000212  27.491700   5.131720   9.749650  31.586300   0.000489  -0.007314  21.036600  -0.001354  -0.005893  27.739900   3.416870   6.438580  31.607400   0.006883  -0.005670  21.050500   0.005386  -0.003723  31.126200   1.052090   1.728370  46.713300   0.003095  -0.002570  31.111000  -0.005390  -0.002810   2.491870   5.411710   0.262480   0.619434   0.179051  -0.484512  -2.074250  -2.973040  -1.029330   0.000000   0.000000   0.000000   0.446692  -0.804006  -1.840530   1.103090   5.524440   0.107672  -3.466170  -2.520110   0.037822   0.000000   0.000000   0.000000
  0.077521  89.550000  -0.615978  -1.949550  -1.932600   1.394890   1.207140   1.912090  -0.715894   2.440130   3.808500  -1.473180   1.023260   0.602948  -0.001844   1.681540   1.221300   1.941120  -3.394770   2.525080   0.647941 -73.418100  14.788000  -3.692550  -2.074130  -4.131770  -9.601120   8.411540  -8.360120   9.676360  41.782500  27.799400 -65.755700 -17.662200  -0.000905   0.004409  -3.831130  -0.002168   0.005234 -34.735200   6.428570  -9.184150 -28.842100  -0.005261   0.011892 -20.189500  -0.004468  -0.013524 -28.615900   2.667150  -4.895230 -39.799300  -0.003590  -0.008013 -26.506300  -0.002401  -0.004893 -28.760000   1.027180  -1.870080 -41.605100  -0.006454   0.008205 -27.709000  -0.005898   0.000685 -39.207200  -0.854517   1.034400 -58.822500  -0.007586   0.001759 -39.175800  -0.004402  -0.003944   2.018760  -1.233630   6.839190  75.143800   5.649040  -0.249774   0.729791  -3.030540   6.154000 -12.723400  -8.822440   3.662620 -40.634500  33.410500  70.098000  26.958600   0.014896  -0.012155   8.478980   0.001772  -0.001483  30.865700   6.186270  10.207800  25.706800   0.001462   0.001802  17.994800   0.001141   0.000210  27.490000   5.135790   9.757100  31.610100   0.000490  -0.007309  21.052400  -0.001357  -0.005872  27.739100   3.416910   6.447790  31.629600   0.006883  -0.005663  21.065300   0.005375  -0.003712  31.137400   1.052310   1.728380  46.730100   0.003094  -0.002564  31.122200  -0.005391  -0.002802   2.499090   5.438290   0.262513   0.619535   0.167158  -0.484218  -2.076170  -2.981030  -1.035990   0.000000   0.000000   0.000000   0.458973  -0.757476  -1.840550   1.103640   5.495570   0.108284  -3.474870  -2.534880   0.038146  -0.000000   0.000000   0.000000
  0.070365  89.550000  -0.598103  -1.949360  -1.936660   1.394950   1.212870   1.923030  -0.720420   2.451900   3.830210  -1.482670   1.036030   0.584781  -0.001920   1.702410   1.184460   1.970350  -3.414060   2.511960   0.658287 -73.412200  14.797200  -3.711630  -2.074570  -4.121690  -9.600850   8.411460  -8.360190   9.676310  41.779500  27.797400 -65.761800 -17.677600  -0.000896   0.004398  -3.838350  -0.002164   0.005230 -34.743700   6.429410  -9.173260 -28.848900  -0.005256   0.011895 -20.194200  -0.004463  -0.013521 -28.616400   2.667070  -4.885120 -39.813900  -0.003581  -0.008019 -26.516000  -0.002395  -0.004892 -28.760300   1.023030  -1.859420 -41.619900  -0.006451   0.008198 -27.718900  -0.005891   0.000686 -39.213900  -0.854613   1.034460 -58.832400  -0.007581   0.001766 -39.182400  -0.004399  -0.003937   2.010350  -1.242020   6.879400  75.114100   5.686180  -0.168074   0.738291  -3.029980   6.103220 -12.720600  -8.792680   3.655840 -40.652400  33.440800  70.116900  26.965100   0.014923  -0.012161   8.481410   0.001772  -0.001484  30.854600   6.184640  10.216000  25.697700   0.001455   0.001807  17.988300   0.001138   0.000211  27.488400   5.140400   9.765170  31.589200   0.000483  -0.007304  21.038400  -0.001356  -0.005842  27.738600   3.416580   6.455410  31.609200   0.006875  -0.005645  21.051800   0.005355  -0.003693  31.123700   1.052400   1.733510  46.709500   0.003092  -0.002551  31.108500  -0.005392  -0.002787   2.502630   5.458890   0.262497   0.619896   0.164571  -0.479284  -2.078670  -2.989880  -1.042940   0.000000   0.000000   0.000000   0.467708  -0.676874  -1.840580   1.101940   5.437030   0.109166  -3.480510  -2.546850   0.036268  -0.000000   0.000000  -0.000000
  0.063204  89.549900  -0.580083  -1.949140  -1.943650   1.394980   1.219130   1.936400  -0.725706   2.464810   3.856760  -1.493760   1.053330   0.564896  -0.002008   1.730760   1.144160   1.997950  -3.433800   2.497580   0.672948 -73.401800  14.820400  -3.734570  -2.077800  -4.115490  -9.600690   8.410810  -8.360270   9.675990  41.775400  27.794100 -65.769500 -17.695500  -0.000887   0.004385  -3.847760  -0.002161   0.005227 -34.754700   6.431010  -9.165640 -28.858100  -0.005248   0.011900 -20.200700  -0.004454  -0.013517 -28.616800   2.666970  -4.877830 -39.828500  -0.003568  -0.008028 -26.525800  -0.002388  -0.004890 -28.760700   1.017040  -1.851560 -41.634800  -0.006447   0.008189 -27.728800  -0.005882   0.000687 -39.220500  -0.854645   1.034530 -58.842400  -0.007573   0.001776 -39.189000  -0.004395  -0.003928   2.000030  -1.251270   6.919060  75.089100   5.736790  -0.064125   0.747310  -3.024460   6.035010 -12.718400  -8.763130   3.645140 -40.668300  33.470300  70.131400  26.974300   0.014962  -0.012171   8.487160   0.001772  -0.001485  30.843400   6.182990  10.224900  25.688500   0.001447   0.001814  17.981900   0.001132   0.000214  27.487300   5.143670   9.770140  31.568300   0.000471  -0.007296  21.024400  -0.001355  -0.005802  27.738400   3.415900   6.459660  31.588900   0.006862  -0.005622  21.038200   0.005328  -0.003670  31.110000   1.052430   1.738640  46.689000   0.003089  -0.002531  31.094900  -0.005393  -0.002768   2.505300   5.476910   0.262462   0.620314   0.164202  -0.471227  -2.081520  -3.002180  -1.049710  -0.000000   0.000000   0.000000   0.476503  -0.621698  -1.840600   1.098070   5.395980   0.111113  -3.485580  -2.558120   0.032281  -0.000000   0.000000  -0.000000
